<svg viewBox="0 0 1080 1080" fill="none" xmlns="http://www.w3.org/2000/svg">      <defs>  <filter id="filter" x="-20%" y="-20%" width="140%" height="140%" filterUnits="objectBoundingBox" primitiveUnits="userSpaceOnUse" color-interpolation-filters="linearRGB">    <feMorphology operator="dilate" radius="20 20" in="SourceAlpha" result="morphology"/>    <feFlood flood-color="#ffffff" flood-opacity="1" result="flood"/>    <feComposite in="flood" in2="morphology" operator="in" result="composite"/>    <feMerge result="merge">          <feMergeNode in="composite" result="mergeNode"/>      <feMergeNode in="SourceGraphic" result="mergeNode1"/>      </feMerge>  </filter></defs>      <g id="notion-avatar" filter="url(#filter)">        <g id="notion-avatar-face" fill="#ffffff">      <!--?xml version="1.0" encoding="UTF-8"?-->    <title>Face/ 10</title>    <g id="Face/-10" stroke="none" stroke-width="1" fill-rule="evenodd" stroke-linecap="round" stroke-linejoin="round">        <path d="M532,379 C664.54834,379 772,486.45166 772,619 C772,751.54834 684.54834,899 592,899 C535.13263,899 351.668898,801.612202 313.752775,718.980575 L313.322946,718.989282 L312,719 C267.81722,719 232,683.18278 232,639 C232,599.134956 261.158843,566.080325 299.312086,560.00055 C325.599297,455.979213 419.809919,379 532,379 Z M295.858895,624.545187 L304.141105,655.454813" id="Path" stroke="#000000" stroke-width="24"/>    </g>    </g><g id="notion-avatar-nose">      <g id="Nose/ 13"><path id="Path" fill-rule="evenodd" clip-rule="evenodd" d="M644 560C644 560 665.892 613.522 673 623C676 627 693.906 641.256 692.774 653.58C690.065 683.076 644 684.359 644 684.359C644 684.359 700 689.489 700 653.58C700 637.222 687 632 674 620C666.959 613.5 644 560 644 560Z" fill="black" stroke="black" stroke-width="6" stroke-linecap="round" stroke-linejoin="round"/></g>    </g><g id="notion-avatar-mouth">      <!--?xml version="1.0" encoding="UTF-8"?-->    <title>Mouth/ 2</title>    <g id="Mouth/-2" stroke="none" stroke-width="1" fill="none" fill-rule="evenodd" stroke-linecap="round" stroke-linejoin="round">        <path d="M572,769 C585.775809,774.333333 599.109142,777 612,777 C624.890858,777 638.224191,774.333333 652,769" id="Path" stroke="#000000" stroke-width="16"/>    </g>    </g><g id="notion-avatar-eyes">      <g id="Eyes/ 13"><g id="Group 1"><g id="Group"><path id="Path" fill-rule="evenodd" clip-rule="evenodd" d="M534 524.531C534 524.531 562.569 539.132 586.169 536.615C609.769 534.097 599.832 520 599.832 520C599.832 520 614.738 534.601 593.622 539.132C572.506 543.664 534 524.531 534 524.531Z" fill="black" stroke="black" stroke-width="6" stroke-linecap="round" stroke-linejoin="round"/><path id="Path_2" d="M540 529L536 537" stroke="black" stroke-width="4" stroke-linecap="round" stroke-linejoin="round"/><path id="Path_3" d="M554 534L551 543" stroke="black" stroke-width="4" stroke-linecap="round" stroke-linejoin="round"/><path id="Path_4" d="M568 537L566 547" stroke="black" stroke-width="4" stroke-linecap="round" stroke-linejoin="round"/><path id="Path_5" d="M582 539L581 549" stroke="black" stroke-width="4" stroke-linecap="round" stroke-linejoin="round"/><path id="Path_6" d="M594 538L596 547" stroke="black" stroke-width="4" stroke-linecap="round" stroke-linejoin="round"/><path id="Path_7" d="M604 534L608 540" stroke="black" stroke-width="4" stroke-linecap="round" stroke-linejoin="round"/></g><g id="Group_2"><path id="Path_8" fill-rule="evenodd" clip-rule="evenodd" d="M672 524.531C672 524.531 700.569 539.132 724.169 536.615C747.769 534.097 737.832 520 737.832 520C737.832 520 752.738 534.601 731.622 539.132C710.506 543.664 672 524.531 672 524.531Z" fill="black" stroke="black" stroke-width="6" stroke-linecap="round" stroke-linejoin="round"/><path id="Path_9" d="M678 529L674 537" stroke="black" stroke-width="4" stroke-linecap="round" stroke-linejoin="round"/><path id="Path_10" d="M692 534L689 543" stroke="black" stroke-width="4" stroke-linecap="round" stroke-linejoin="round"/><path id="Path_11" d="M706 537L704 547" stroke="black" stroke-width="4" stroke-linecap="round" stroke-linejoin="round"/><path id="Path_12" d="M720 539L719 549" stroke="black" stroke-width="4" stroke-linecap="round" stroke-linejoin="round"/><path id="Path_13" d="M732 538L734 547" stroke="black" stroke-width="4" stroke-linecap="round" stroke-linejoin="round"/><path id="Path_14" d="M742 534L746 540" stroke="black" stroke-width="4" stroke-linecap="round" stroke-linejoin="round"/></g></g></g>    </g><g id="notion-avatar-eyebrows">      <g id="Eyebrows/ 13"><g id="Group"><path id="Path" fill-rule="evenodd" clip-rule="evenodd" d="M662.391 482.335C665.391 477.335 722.391 459.335 742.391 462.335C762.391 465.335 791.391 491.335 791.391 491.335C791.391 491.335 764.391 480.335 739.391 480.335C714.391 480.335 679.391 498.335 679.391 498.335C679.391 498.335 659.391 487.335 662.391 482.335Z" fill="black" stroke="black" stroke-width="4" stroke-linecap="round" stroke-linejoin="round"/><path id="Path_2" fill-rule="evenodd" clip-rule="evenodd" d="M615 482.335C612 477.335 555 459.335 535 462.335C515 465.335 486 491.335 486 491.335C486 491.335 513 480.335 538 480.335C563 480.335 598 498.335 598 498.335C598 498.335 618 487.335 615 482.335Z" fill="black" stroke="black" stroke-width="4" stroke-linecap="round" stroke-linejoin="round"/></g></g>    </g><g id="notion-avatar-glasses">      <!--?xml version="1.0" encoding="UTF-8"?-->    <title>Glasses/ 5</title>    <g id="Glasses/-5" stroke="none" stroke-width="1" fill="none" fill-rule="evenodd" stroke-linecap="round" stroke-linejoin="round">        <g id="Group" transform="translate(289.000000, 500.000000)" stroke="#000000">            <path d="M339.818182,40.2109589 C338.074175,42.9080712 336.862054,47.8943725 336.181818,55.169863 L327.454545,55.169863 C324.545455,28.1013699 305.393939,14.0922374 270,13.1424658 C240.424242,11.2429224 222.727273,23.1150685 216.909091,48.7589041 L205.272727,48.7589041 L190,33.8 L190,10.2931507 C222.484848,2.22009132 249.151515,-1.10410959 270,0.320547945 C285.225486,1.36096427 303.25963,5.13798521 324.62746,9.93254373 L332.545455,11.7178082 C336.214681,12.54746 342.032863,13.4972317 350,14.5671233 L352.073632,14.2846662 C358.984501,13.3293325 364.111473,12.4737132 367.454545,11.7178082 L376.341511,9.71531602 C397.286215,5.02415827 415.005203,1.34520038 430,0.320547945 C450.64,-1.08986301 476.9824,2.15408219 509.0272,10.0523836 L510,10.2931507 L510,33.8 L494.727273,48.7589041 L483.090909,48.7589041 C477.272727,23.1150685 459.575758,11.2429224 430,13.1424658 C394.96,14.0827397 375.8392,27.8224932 372.6376,54.361726 L372.545455,55.169863 L363.818182,55.169863 L363.730382,54.2723496 C363.036013,47.4828217 361.853158,42.7956915 360.181818,40.2109589 C358.482529,37.5830034 355.216835,35.4868176 350.384736,33.9224017 L350,33.8 C344.956128,35.3768603 341.562189,37.5138466 339.818182,40.2109589 Z" id="Path" stroke-width="4" fill="#000000"/>            <path d="M216.909091,48.4383562 C216.909091,85.4794521 234.606061,104 270,104 C305.393939,104 324.545455,87.6164384 327.454545,54.8493151" id="Path" stroke-width="6"/>            <path d="M372.545455,48.4383562 C372.545455,85.4794521 390.242424,104 425.636364,104 C461.030303,104 480.181818,87.6164384 483.090909,54.8493151" id="Path" stroke-width="6" transform="translate(427.818182, 76.219178) scale(-1, 1) translate(-427.818182, -76.219178) "/>            <polygon id="Path" stroke-width="4" fill="#000000" points="199 9 4 41 0 50 199 30"/>        </g>    </g>    </g><g id="notion-avatar-hair">      <!--?xml version="1.0" encoding="UTF-8"?-->    <title>Hairstyle/ 24</title>    <g id="Hairstyle/-24" stroke="none" stroke-width="1" fill="none" fill-rule="evenodd" stroke-linecap="round" stroke-linejoin="round">        <path d="M781,289.497769 C798.103709,316.997454 825.17172,336.301089 841,364 C865.890626,407.557684 868.077011,462.61072 868,529 C867.9675,557.017942 882.693139,582.736765 881,600 C876.129956,649.654956 859.837727,658.601446 868,683 C875.333333,704.9207 892,713.587367 918,709 C879.594389,742.832207 847.927723,762.832207 823,769 C798.072277,775.167793 764.738944,778.128143 723,777.88105 C752.333333,741.246882 771.666667,693.702197 781,635.246996 C787.192253,596.464564 768.614679,548.940715 764,528.632681 C756,493.426708 705,479.809303 671,458.884998 C648.333333,444.935462 632.333333,425.339684 623,400.097666 C619.930775,398.204518 609.503486,418.456691 578,448.921044 C556.997676,469.230612 531.664342,481.851621 502,486.784071 C522,461.542053 533.666667,441.282012 537,426.003948 C540.333333,410.725884 536.333333,390.133711 525,364.227429 C527,394.783556 522.333333,421.02197 511,442.942671 C499.666667,464.863371 479.666667,482.466358 451,495.751631 C459.984865,482.167128 463.984865,464.564141 463,442.942671 C462.109292,423.388296 457.109292,400.803332 448,375.187779 C446.738771,415.491033 444.405438,444.386502 441,461.874185 C432.896469,503.487621 336,623.290251 357,653.182115 C371,673.110024 395.666667,683.049319 431,683 C409,700.333333 389,712.333333 371,719 C344,729 285.006413,721.830457 312,729.165808 C321.432212,749.904322 324.306229,752.229245 336.874017,766.032441 C349.254226,779.629619 251,793.931514 185,775 C141,762.378991 111.333333,743.447477 96,718.205458 C119.330285,723.999457 128.663618,723.999457 124,718.205458 C117.31189,709.896266 101.978557,695.282466 78,674.364058 C110.615651,683.475632 131.282317,681.15071 140,667.389289 C157.219175,640.207719 139.708942,582.818574 140,557.52815 C140.291796,532.173599 161.203267,500.097769 173,461.874185 C181.216606,435.25087 180.158048,400.228294 185,385.151734 C209,310.422073 252.196553,275.33175 292,247.649159 C316.914685,230.321438 337,180.890663 393,159.966358 C449,139.042053 472.944616,159.966358 512,159.966358 C529.495144,159.966358 548.056153,149.154015 564,151 C671.997018,163.503936 742.660193,227.854262 781,289.497769 Z" id="Path" stroke="#000000" stroke-width="12" fill="#000000"/>    </g>    </g><g id="notion-avatar-accessories">      <!--?xml version="1.0" encoding="UTF-8"?-->    <title>Accessories/ 0</title>    <g id="Accessories/-0" stroke="none" stroke-width="1" fill="none" fill-rule="evenodd"/>    </g><g id="notion-avatar-details">      <!--?xml version="1.0" encoding="UTF-8"?-->    <title>Details/ 0</title>    <g id="Details/-0" stroke="none" stroke-width="1" fill="none" fill-rule="evenodd"/>    </g><g id="notion-avatar-beard">      <!--?xml version="1.0" encoding="UTF-8"?-->    <title>Beard/ 0</title>    <g id="Beard/-0" stroke="none" stroke-width="1" fill="none" fill-rule="evenodd"/>    </g>      </g>      </svg>