<svg viewBox="0 0 1080 1080" fill="none" xmlns="http://www.w3.org/2000/svg">      <defs>  <filter id="filter" x="-20%" y="-20%" width="140%" height="140%" filterUnits="objectBoundingBox" primitiveUnits="userSpaceOnUse" color-interpolation-filters="linearRGB">    <feMorphology operator="dilate" radius="20 20" in="SourceAlpha" result="morphology"/>    <feFlood flood-color="#ffffff" flood-opacity="1" result="flood"/>    <feComposite in="flood" in2="morphology" operator="in" result="composite"/>    <feMerge result="merge">          <feMergeNode in="composite" result="mergeNode"/>      <feMergeNode in="SourceGraphic" result="mergeNode1"/>      </feMerge>  </filter></defs>      <g id="notion-avatar" filter="url(#filter)">        <g id="notion-avatar-face" fill="#ffffff">      <!--?xml version="1.0" encoding="UTF-8"?-->    <title>Face/ 10</title>    <g id="Face/-10" stroke="none" stroke-width="1" fill-rule="evenodd" stroke-linecap="round" stroke-linejoin="round">        <path d="M532,379 C664.54834,379 772,486.45166 772,619 C772,751.54834 684.54834,899 592,899 C535.13263,899 351.668898,801.612202 313.752775,718.980575 L313.322946,718.989282 L312,719 C267.81722,719 232,683.18278 232,639 C232,599.134956 261.158843,566.080325 299.312086,560.00055 C325.599297,455.979213 419.809919,379 532,379 Z M295.858895,624.545187 L304.141105,655.454813" id="Path" stroke="#000000" stroke-width="24"/>    </g>    </g><g id="notion-avatar-nose">      <g id="Nose/ 11"><path id="Path" fill-rule="evenodd" clip-rule="evenodd" d="M648.516 601C648.516 601 664.222 603.637 672 609.977C685.06 620.622 693.906 641.256 692.774 653.58C690.065 683.076 644 684.359 644 684.359C644 684.359 700 689.489 700 653.58C700 637.222 689.433 619.065 672 608.695C663.922 603.889 648.516 601 648.516 601Z" fill="black" stroke="black" stroke-width="6" stroke-linecap="round" stroke-linejoin="round"/></g>    </g><g id="notion-avatar-mouth">      <g id="Mouth/ 14"><g id="Group"><path id="Path" fill-rule="evenodd" clip-rule="evenodd" d="M555.87 801.555C536.147 789.209 521.396 768.019 521.396 768.019C521.396 768.019 569 757.637 609 757.319C649 757 696.604 768.019 696.604 768.019C696.604 768.019 681.852 789.209 662.129 801.555C653.101 807.207 625 810 609.443 810C593.886 810 564.806 807.15 555.87 801.555Z" stroke="black" stroke-width="16" stroke-linecap="round" stroke-linejoin="round"/><path id="Path_2" d="M569.322 801C569.322 801 589.161 793 609 793C628.838 793 648.677 801 648.677 801" stroke="black" stroke-width="8" stroke-linecap="round" stroke-linejoin="round"/></g></g>    </g><g id="notion-avatar-eyes">      <!--?xml version="1.0" encoding="UTF-8"?-->    <title>Eyes/ 3</title>    <g id="Eyes/-3" stroke="none" stroke-width="1" fill="none" fill-rule="evenodd" stroke-linecap="round" stroke-linejoin="round">        <g id="Group" transform="translate(533.944954, 540.730159)" stroke="#000000" stroke-width="12">            <path d="M146.275229,-1.43884904e-13 C159.958467,9.35202544 170.38232,14.8216846 177.546789,16.4089776 C184.711258,17.9962705 196.232359,17.3885306 212.110092,14.5857578" id="Path" transform="translate(179.192661, 8.634921) scale(-1, 1) translate(-179.192661, -8.634921) "/>            <path d="M6.39488462e-14,-1.43884904e-13 C13.6832373,9.35202544 24.1070905,14.8216846 31.2715596,16.4089776 C38.4360288,17.9962705 49.9571297,17.3885306 65.8348624,14.5857578" id="Path"/>        </g>    </g>    </g><g id="notion-avatar-eyebrows">      <g id="Eyebrows/ 15"><g id="Group"><path id="Path" fill-rule="evenodd" clip-rule="evenodd" d="M622.289 506.124C622.289 506.124 622.95 493.517 619.376 491.698C615.802 489.88 558.683 477.099 542.118 478.134C525.552 479.169 502.752 494.15 502.752 494.15C502.752 494.15 526.26 485.069 547.179 487.167C568.098 489.265 622.289 506.124 622.289 506.124Z" fill="black" stroke="black" stroke-width="4" stroke-linecap="round" stroke-linejoin="round"/><path id="Path_2" fill-rule="evenodd" clip-rule="evenodd" d="M654.711 506.124C654.711 506.124 654.05 493.517 657.624 491.698C661.198 489.88 718.317 477.099 734.882 478.134C751.448 479.169 774.248 494.15 774.248 494.15C774.248 494.15 750.74 485.069 729.821 487.167C708.902 489.265 654.711 506.124 654.711 506.124Z" fill="black" stroke="black" stroke-width="4" stroke-linecap="round" stroke-linejoin="round"/></g></g>    </g><g id="notion-avatar-glasses">      <!--?xml version="1.0" encoding="UTF-8"?-->    <title>Glasses/ 6</title>    <g id="Glasses/-6" stroke="none" stroke-width="1" fill="none" fill-rule="evenodd" stroke-linecap="round" stroke-linejoin="round">        <g id="Group" transform="translate(289.000000, 489.000000)" fill="#000000" stroke="#000000" stroke-width="4">            <path d="M507.197382,9.82478969 C513.43226,17.7007378 515.213654,62.5936419 486.711355,88.5842707 C469.404358,104.366146 429.38069,108.487745 402.985851,98.8230032 C386.082673,92.6337314 377.827731,74.7226245 375.444668,70.5905602 L375.374248,70.46959 C367.818365,57.6210186 359.693569,48.7969114 350.999861,43.9972684 C342.444422,48.7207266 334.439709,57.3419022 326.985986,69.8607952 L326.625752,70.46959 C324.338153,74.359588 316.088066,92.5712135 299.014149,98.8230032 C272.61931,108.487745 232.595642,104.366146 215.288645,88.5842707 C186.786346,62.5936419 188.56774,17.7007378 194.802618,9.82478969 C201.037496,1.94884159 243.790945,-3.56432208 278.528122,2.7364364 C313.265299,9.03719488 328.491531,25.281971 335.53272,27.9394703 C339.929408,29.5988766 344.89638,30.3949699 350.433636,30.3277503 L350.434736,30.3022547 L351,30.3179093 L351.565264,30.3022547 L351.566163,30.3277478 C357.1035,30.3949891 362.070539,29.5988966 366.46728,27.9394703 C373.508469,25.281971 388.734701,9.03719488 423.471878,2.7364364 C458.209055,-3.56432208 500.962504,1.94884159 507.197382,9.82478969 Z M209.053767,15.3379534 C189.458437,28.7270651 207.272374,75.1951589 225.977008,88.5842707 C244.681642,101.973382 289.216484,98.8230032 299.904846,91.7346499 C310.593209,84.6462966 334.642023,53.930099 326.625752,34.2402288 C318.60948,14.5503585 237.556067,1.16124678 209.053767,15.3379534 Z M492.946233,15.3379534 C464.443933,1.16124678 383.39052,14.5503585 375.374248,34.2402288 C367.357977,53.930099 391.406791,84.6462966 402.095154,91.7346499 C412.783516,98.8230032 457.318358,101.973382 476.022992,88.5842707 C494.727626,75.1951589 512.541563,28.7270651 492.946233,15.3379534 Z" id="Combined-Shape"/>            <polygon id="Path" points="199 20 4 52 0 61 199 41"/>        </g>    </g>    </g><g id="notion-avatar-hair">      <!--?xml version="1.0" encoding="UTF-8"?-->    <title>Hairstyle/ 21</title>    <g id="Hairstyle/-21" stroke="none" stroke-width="1" fill="none" fill-rule="evenodd" stroke-linecap="round" stroke-linejoin="round">        <path d="M232,126 C292.220249,126 344.152059,161.487028 368.024158,212.689811 C410.238527,194.447151 459.304239,186 515,186 C629.125983,186 703.747536,236.594939 747,304 C768.389326,337.333333 781.389326,393.666667 786,473 L680,473 L650,408 L650,473 L532,473 L500,392 L503,473 L385,473 C389.666667,493.666667 391,512.333333 389,529 C386,554 361.052092,589.961487 358,586 C352.543445,578.917621 333.32,563.08 300,567 C277.333333,569.666667 249,596 240,625 C216.02868,569.081696 198.509382,476.747877 207.442105,423.998542 C136.28321,412.281762 82,350.480143 82,276 C82,193.157288 149.157288,126 232,126 Z" id="Combined-Shape" stroke="#000000" stroke-width="12" fill="#000000"/>    </g>    </g><g id="notion-avatar-accessories">      <!--?xml version="1.0" encoding="UTF-8"?-->    <title>Accessories/ 0</title>    <g id="Accessories/-0" stroke="none" stroke-width="1" fill="none" fill-rule="evenodd"/>    </g><g id="notion-avatar-details">      <!--?xml version="1.0" encoding="UTF-8"?-->    <title>Details/ 0</title>    <g id="Details/-0" stroke="none" stroke-width="1" fill="none" fill-rule="evenodd"/>    </g><g id="notion-avatar-beard">      <!--?xml version="1.0" encoding="UTF-8"?-->    <title>Beard/ 0</title>    <g id="Beard/-0" stroke="none" stroke-width="1" fill="none" fill-rule="evenodd"/>    </g>      </g>      </svg>