<svg viewBox="0 0 1080 1080" fill="none" xmlns="http://www.w3.org/2000/svg">      <defs>  <filter id="filter" x="-20%" y="-20%" width="140%" height="140%" filterUnits="objectBoundingBox" primitiveUnits="userSpaceOnUse" color-interpolation-filters="linearRGB">    <feMorphology operator="dilate" radius="20 20" in="SourceAlpha" result="morphology"/>    <feFlood flood-color="#ffffff" flood-opacity="1" result="flood"/>    <feComposite in="flood" in2="morphology" operator="in" result="composite"/>    <feMerge result="merge">          <feMergeNode in="composite" result="mergeNode"/>      <feMergeNode in="SourceGraphic" result="mergeNode1"/>      </feMerge>  </filter></defs>      <g id="notion-avatar" filter="url(#filter)">        <g id="notion-avatar-face" fill="#ffffff">      <!--?xml version="1.0" encoding="UTF-8"?-->    <title>Face/ 6</title>    <g id="Face/-6" stroke="none" stroke-width="1" fill-rule="evenodd" stroke-linecap="round" stroke-linejoin="round">        <path d="M532,379 C664.54834,379 772,486.45166 772,619 C772,751.54834 764.54834,899 532,899 C402.610491,899 332.317998,816.086314 305.249034,718.717925 C264.225797,715.291578 232,680.909158 232,639 C232,599.134956 261.158843,566.080325 299.312086,560.00055 C325.599297,455.979213 419.809919,379 532,379 Z M295.858895,624.545187 L304.141105,655.454813" id="Path" stroke="#000000" stroke-width="24"/>    </g>    </g><g id="notion-avatar-nose">      <g id="Nose/ 11"><path id="Path" fill-rule="evenodd" clip-rule="evenodd" d="M648.516 601C648.516 601 664.222 603.637 672 609.977C685.06 620.622 693.906 641.256 692.774 653.58C690.065 683.076 644 684.359 644 684.359C644 684.359 700 689.489 700 653.58C700 637.222 689.433 619.065 672 608.695C663.922 603.889 648.516 601 648.516 601Z" fill="black" stroke="black" stroke-width="6" stroke-linecap="round" stroke-linejoin="round"/></g>    </g><g id="notion-avatar-mouth">      <!--?xml version="1.0" encoding="UTF-8"?-->    <title>Mouth/ 3</title>    <g id="Mouth/-3" stroke="none" stroke-width="1" fill="none" fill-rule="evenodd" stroke-linecap="round" stroke-linejoin="round">        <g id="Group" transform="translate(475.000000, 729.000000)" stroke="#000000" stroke-width="16">            <path d="M66,41.0869565 C93.79487,40.6243036 114.628203,38.8851732 128.5,35.8695652 C142.371797,32.8539572 161.538463,25.8974355 186,15" id="Path"/>            <path d="M161,25.4347826 C161,49.7826087 153.5,65.4347826 138.5,72.3913043 C123.5,79.3478261 101.833333,68.9130435 73.5,41.0869565" id="Path"/>            <path d="M2.14164194,45 C-1.3880481,36.6867754 -0.554714768,27.8534421 4.64164194,18.5 C9.83799864,9.14655793 17.3379986,2.97989127 27.1416419,0" id="Path"/>        </g>    </g>    </g><g id="notion-avatar-eyes">      <!--?xml version="1.0" encoding="UTF-8"?-->    <title>Eyes/ 3</title>    <g id="Eyes/-3" stroke="none" stroke-width="1" fill="none" fill-rule="evenodd" stroke-linecap="round" stroke-linejoin="round">        <g id="Group" transform="translate(533.944954, 540.730159)" stroke="#000000" stroke-width="12">            <path d="M146.275229,-1.43884904e-13 C159.958467,9.35202544 170.38232,14.8216846 177.546789,16.4089776 C184.711258,17.9962705 196.232359,17.3885306 212.110092,14.5857578" id="Path" transform="translate(179.192661, 8.634921) scale(-1, 1) translate(-179.192661, -8.634921) "/>            <path d="M6.39488462e-14,-1.43884904e-13 C13.6832373,9.35202544 24.1070905,14.8216846 31.2715596,16.4089776 C38.4360288,17.9962705 49.9571297,17.3885306 65.8348624,14.5857578" id="Path"/>        </g>    </g>    </g><g id="notion-avatar-eyebrows">      <!--?xml version="1.0" encoding="UTF-8"?-->    <title>Eyebrows/ 2</title>    <g id="Eyebrows/-2" stroke="none" stroke-width="1" fill="none" fill-rule="evenodd" stroke-linecap="round" stroke-linejoin="round">        <path d="M570,485.718496 C590.574398,488.795594 605.574398,494.964927 615,504.226493 C600,498.618009 585,495.813767 570,495.813767 C555,495.813767 536.666667,498.618009 515,504.226493 L525,490.766132 C534.425602,484.323943 549.425602,482.641398 570,485.718496 Z M708,485.718496 C728.574398,482.641398 743.574398,484.323943 753,490.766132 L753,490.766132 L763,504.226493 C741.333333,498.618009 723,495.813767 708,495.813767 C693,495.813767 678,498.618009 663,504.226493 C672.425602,494.964927 687.425602,488.795594 708,485.718496 Z" id="Combined-Shape" stroke="#000000" stroke-width="16" fill="#000000"/>    </g>    </g><g id="notion-avatar-glasses">      <!--?xml version="1.0" encoding="UTF-8"?-->    <title>Glasses/ 7</title>    <g id="Glasses/-7" stroke="none" stroke-width="1" fill="none" fill-rule="evenodd" stroke-linecap="round" stroke-linejoin="round">        <g id="Group" transform="translate(289.000000, 502.000000)" fill="#000000" stroke="#000000" stroke-width="4">            <path d="M339.740368,39.6303745 C323.440763,83.0959855 305.148598,104 266.642657,104 C226.661085,104 208.819095,87.634841 206.637074,34.1753215 C206.548706,32.0103005 204.003015,29.8282793 199,27.6292579 L199,6.90005646 C238.696939,1.25810378 267.426885,-0.923917428 285.189838,0.353992852 C297.612079,1.2476793 312.018598,4.36213391 328.409394,9.69735669 C333.107339,11.2265431 340.521032,12.1124607 350.650474,12.3551095 L351.336909,12.3375684 C361.115498,12.0718595 368.30038,11.1917889 372.891553,9.69735669 C389.282349,4.36213391 403.688868,1.2476793 416.11111,0.353992852 C433.874063,-0.923917428 462.604008,1.25810378 502.300947,6.90005646 L502.300947,6.90005646 L502.300947,27.6292579 C497.297933,29.8282793 494.752241,32.0103005 494.663873,34.1753215 C492.481852,87.634841 474.639862,104 434.65829,104 C396.15235,104 377.860184,83.0959855 361.56058,39.6303745 C359.378558,33.8116513 355.741856,30.9022897 350.650474,30.9022897 L350.650474,30.9022897 C345.559091,30.9022897 341.922389,33.8116513 339.740368,39.6303745 Z" id="Combined-Shape"/>            <polygon id="Path" points="199 7 4 39 0 48 199 28"/>        </g>    </g>    </g><g id="notion-avatar-hair">      <g id="Hairstyle/ 54"><path id="Path" fill-rule="evenodd" clip-rule="evenodd" d="M486.999 191C396.999 191 260.999 287 207.999 414C154.999 541 112.933 911.176 150.999 968C219.999 1071 236.999 921 310.999 968C335.904 983.818 371.108 800.584 358.999 788C332.527 760.489 311.999 719 311.999 719C311.999 719 231.999 705 231.999 639C231.999 573 285.999 566 310.999 566C335.999 566 358.999 611 358.999 611C358.999 611 378.999 592 382.999 548C384.869 527.436 469.999 502 539.999 476C609.999 450 660.999 414 660.999 414C660.999 414 687.324 439.865 707.999 461C752.999 507 763.999 568 763.999 639C763.999 675.67 752.251 769.763 734.999 851C718.849 927.051 696.711 991.067 707.999 1008C721.183 1027.78 737.429 978.285 797.999 948C837.999 928 823.999 1001 852.999 948C881.999 895 848.999 655 828.999 519C808.999 383 750.999 292 672.999 241C594.999 190 506.36 191 486.999 191Z" fill="black" stroke="black" stroke-width="12" stroke-linecap="round" stroke-linejoin="round"/></g>    </g><g id="notion-avatar-accessories">      <!--?xml version="1.0" encoding="UTF-8"?-->    <title>Accessories/ 0</title>    <g id="Accessories/-0" stroke="none" stroke-width="1" fill="none" fill-rule="evenodd"/>    </g><g id="notion-avatar-details">      <!--?xml version="1.0" encoding="UTF-8"?-->    <title>Details/ 0</title>    <g id="Details/-0" stroke="none" stroke-width="1" fill="none" fill-rule="evenodd"/>    </g><g id="notion-avatar-beard">      <!--?xml version="1.0" encoding="UTF-8"?-->    <title>Beard/ 0</title>    <g id="Beard/-0" stroke="none" stroke-width="1" fill="none" fill-rule="evenodd"/>    </g>      </g>      </svg>