<svg viewBox="0 0 1080 1080" fill="none" xmlns="http://www.w3.org/2000/svg">      <defs>  <filter id="filter" x="-20%" y="-20%" width="140%" height="140%" filterUnits="objectBoundingBox" primitiveUnits="userSpaceOnUse" color-interpolation-filters="linearRGB">    <feMorphology operator="dilate" radius="20 20" in="SourceAlpha" result="morphology"/>    <feFlood flood-color="#ffffff" flood-opacity="1" result="flood"/>    <feComposite in="flood" in2="morphology" operator="in" result="composite"/>    <feMerge result="merge">          <feMergeNode in="composite" result="mergeNode"/>      <feMergeNode in="SourceGraphic" result="mergeNode1"/>      </feMerge>  </filter></defs>      <g id="notion-avatar" filter="url(#filter)">        <g id="notion-avatar-face" fill="#ffffff">      <!--?xml version="1.0" encoding="UTF-8"?-->    <title>Face/ 7</title>    <g id="Face/-7" stroke="none" stroke-width="1" fill-rule="evenodd" stroke-linecap="round" stroke-linejoin="round">        <path d="M532,379 C664.54834,379 772,486.45166 772,619 C772,751.54834 764.54834,919 572,919 C415.13263,919 351.668898,801.612202 313.752775,718.980575 L313.322946,718.989282 L312,719 C267.81722,719 232,683.18278 232,639 C232,599.134956 261.158843,566.080325 299.312086,560.00055 C325.599297,455.979213 419.809919,379 532,379 Z M295.858895,624.545187 L304.141105,655.454813" id="Path" stroke="#000000" stroke-width="24"/>    </g>    </g><g id="notion-avatar-nose">      <!--?xml version="1.0" encoding="UTF-8"?-->    <title>Nose/ 5</title>    <g id="Nose/-5" stroke="none" stroke-width="1" fill="none" fill-rule="evenodd" stroke-linecap="round" stroke-linejoin="round">        <path d="M673,568 C662.55102,590.836147 657.326531,613.414126 657.326531,635.733939 C657.326531,669.213657 673,686.992054 670.061224,702.552554 C668.102041,712.92622 653.081633,714.756867 625,708.044495" id="Path" stroke="#000000" stroke-width="16"/>    </g>    </g><g id="notion-avatar-mouth">      <!--?xml version="1.0" encoding="UTF-8"?-->    <title>Mouth/ 1</title>    <g id="Mouth/-1" stroke="none" stroke-width="1" fill="none" fill-rule="evenodd" stroke-linecap="round" stroke-linejoin="round">        <path d="M549,759 C575.12979,773.666667 603.12979,781 633,781 C662.87021,781 682.87021,773.666667 693,759" id="Path" stroke="#000000" stroke-width="16"/>    </g>    </g><g id="notion-avatar-eyes">      <!--?xml version="1.0" encoding="UTF-8"?-->    <title>Eyes/ 10</title>    <g id="Eyes/-10" stroke="none" stroke-width="1" fill="none" fill-rule="evenodd">        <g id="Group" transform="translate(520.000000, 512.000000)">            <g transform="translate(140.000000, 0.000000)">                <circle id="Oval" fill="#000000" cx="52" cy="28" r="24"/>                <path d="M1,16 C24.2727273,8 41.7272727,4 53.3636364,4 C65,4 79.5454545,8 97,16" id="Path" stroke="#000000" stroke-width="12" stroke-linecap="round" stroke-linejoin="round" transform="translate(49.000000, 10.000000) rotate(-4.000000) translate(-49.000000, -10.000000) "/>            </g>            <g>                <circle id="Oval" fill="#000000" transform="translate(46.000000, 28.000000) scale(-1, 1) translate(-46.000000, -28.000000) " cx="46" cy="28" r="24"/>                <path d="M1,16 C24.2727273,8 41.7272727,4 53.3636364,4 C65,4 79.5454545,8 97,16" id="Path" stroke="#000000" stroke-width="12" stroke-linecap="round" stroke-linejoin="round" transform="translate(49.000000, 10.000000) scale(-1, 1) rotate(-4.000000) translate(-49.000000, -10.000000) "/>            </g>        </g>    </g>    </g><g id="notion-avatar-eyebrows">      <g id="Eyebrows/ 14"><g id="Group"><path id="Path" fill-rule="evenodd" clip-rule="evenodd" d="M662.91 475.625C666.416 470.966 683.95 466.776 703.527 471.85C723.104 476.924 790.263 498.06 790.263 498.06C790.263 498.06 759.746 491.836 734.883 489.223C710.02 486.61 669.579 489.023 669.579 489.023C669.579 489.023 659.404 480.284 662.91 475.625Z" fill="black" stroke="black" stroke-width="4" stroke-linecap="round" stroke-linejoin="round"/><path id="Path_2" fill-rule="evenodd" clip-rule="evenodd" d="M614.481 475.625C610.974 470.966 593.44 466.776 573.864 471.85C554.287 476.924 487.128 498.06 487.128 498.06C487.128 498.06 517.645 491.836 542.508 489.223C567.371 486.61 607.812 489.023 607.812 489.023C607.812 489.023 617.987 480.284 614.481 475.625Z" fill="black" stroke="black" stroke-width="4" stroke-linecap="round" stroke-linejoin="round"/></g></g>    </g><g id="notion-avatar-glasses">      <!--?xml version="1.0" encoding="UTF-8"?-->    <title>Glasses/ 8</title>    <g id="Glasses/-8" stroke="none" stroke-width="1" fill="none" fill-rule="evenodd" stroke-linecap="round" stroke-linejoin="round">        <g id="Group" transform="translate(293.000000, 475.000000)" stroke="#000000">            <path d="M328.31869,48.9411765 C333.965749,25.4117647 327.377514,0 252.083396,0 C176.789279,0 173.024573,30.1176471 170.201043,48.9411765 C167.377514,67.7647059 157.024573,140.235294 227.612808,143.058824 C298.201043,145.882353 322.671631,72.4705882 328.31869,48.9411765 Z" id="Path" stroke-width="8" fill="#0C0C0C"/>            <path d="M523.46091,48.9411765 C529.107969,25.4117647 522.519734,3.63797881e-12 447.225616,3.63797881e-12 C371.931498,3.63797881e-12 368.166792,30.1176471 365.343263,48.9411765 C362.519734,67.7647059 352.166792,140.235294 422.755028,143.058824 C493.343263,145.882353 517.813851,72.4705882 523.46091,48.9411765 Z" id="Path" stroke-width="8" fill="#0C0C0C" transform="translate(444.072807, 71.569037) scale(-1, 1) translate(-444.072807, -71.569037) "/>            <line x1="301.965749" y1="7.52941176" x2="391.377514" y2="7.52941176" id="Path" stroke-width="8"/>            <path d="M301.965749,35.7647059 C317.212807,34.5098039 332.271631,33.8823529 347.14222,33.8823529 C362.012808,33.8823529 376.757907,34.5098039 391.377514,35.7647059" id="Path" stroke-width="8"/>            <line x1="217" y1="40" x2="1.3111035" y2="83.3393577" id="Path" stroke-width="16" transform="translate(109.155552, 61.669679) rotate(1.361411) translate(-109.155552, -61.669679) "/>        </g>    </g>    </g><g id="notion-avatar-hair">      <g id="Hairstyle/ 52"><path id="Path" fill-rule="evenodd" clip-rule="evenodd" d="M512.002 159.967C529.497 159.967 548.058 149.154 564.002 151C671.999 163.504 742.662 227.855 781.002 289.498C798.105 316.998 832.173 357.301 848.002 385C872.892 428.558 881.079 473.611 881.002 540C880.969 568.018 882.695 582.737 881.002 600C879.919 611.04 858.002 642 858.002 642C858.002 642 871.575 639.91 881.002 635C890.428 630.091 906.002 617 906.002 617C906.002 617 892.002 664 881.002 672C870.002 680 853.002 681 863.002 695C873.002 709 892.002 713.588 918.002 709C879.596 742.833 847.929 762.833 823.002 769C798.074 775.168 771.407 778.128 743.002 777.881L744.738 772.642C763.255 716.488 775.343 670.69 781.002 635.247C787.194 596.465 768.616 548.941 764.002 528.633C756.002 493.427 711.002 455 669.002 419C641.002 395 593.002 376.743 525.002 364.228L448.002 375.188C452.668 399.063 438.335 484 421.002 540C395.002 624 336.002 623.291 357.002 653.182C378.002 683.074 334.002 683 334.002 716C334.002 738 359.668 752.667 411.002 760C377.002 782 347.335 791.334 322.002 788C277.766 782.18 250.089 755.816 238.002 760C220.668 766 220.668 778.334 238.002 797C204.668 792.334 179.002 780 161.002 760C134.002 730 136.326 705.969 138.002 685C139.678 664.031 156.925 668.032 170.002 647.39C187.221 620.208 139.711 582.819 140.002 557.528C140.294 532.174 161.205 500.098 173.002 461.875C181.218 435.251 180.16 400.229 185.002 385.152C209.002 310.422 252.198 275.332 292.002 247.649C316.916 230.322 337.002 180.891 393.002 159.967C449.002 139.042 472.946 159.967 512.002 159.967Z" fill="black" stroke="black" stroke-width="12" stroke-linecap="round" stroke-linejoin="round"/></g>    </g><g id="notion-avatar-accessories">      <!--?xml version="1.0" encoding="UTF-8"?-->    <title>Accessories/ 0</title>    <g id="Accessories/-0" stroke="none" stroke-width="1" fill="none" fill-rule="evenodd"/>    </g><g id="notion-avatar-details">      <!--?xml version="1.0" encoding="UTF-8"?-->    <title>Details/ 0</title>    <g id="Details/-0" stroke="none" stroke-width="1" fill="none" fill-rule="evenodd"/>    </g><g id="notion-avatar-beard">      <!--?xml version="1.0" encoding="UTF-8"?-->    <title>Beard/ 0</title>    <g id="Beard/-0" stroke="none" stroke-width="1" fill="none" fill-rule="evenodd"/>    </g>      </g>      </svg>